<?xml version="1.0" encoding="UTF-8" standalone="no"?>
<!-- Created with Inkscape (http://www.inkscape.org/) -->

<svg
   width="25mm"
   height="25mm"
   viewBox="0 0 25 25"
   version="1.1"
   id="svg1"
   inkscape:version="1.3.2 (091e20e, 2023-11-25, custom)"
   sodipodi:docname="gear_hover.svg"
   xmlns:inkscape="http://www.inkscape.org/namespaces/inkscape"
   xmlns:sodipodi="http://sodipodi.sourceforge.net/DTD/sodipodi-0.dtd"
   xmlns="http://www.w3.org/2000/svg"
   xmlns:svg="http://www.w3.org/2000/svg">
  <sodipodi:namedview
     id="namedview1"
     pagecolor="#ffffff"
     bordercolor="#111111"
     borderopacity="1"
     inkscape:showpageshadow="0"
     inkscape:pageopacity="0"
     inkscape:pagecheckerboard="1"
     inkscape:deskcolor="#d1d1d1"
     inkscape:document-units="mm"
     inkscape:zoom="5.6568543"
     inkscape:cx="41.100581"
     inkscape:cy="61.253124"
     inkscape:window-width="2400"
     inkscape:window-height="1271"
     inkscape:window-x="-9"
     inkscape:window-y="300"
     inkscape:window-maximized="1"
     inkscape:current-layer="layer1"
     showguides="true">
    <sodipodi:guide
       position="12.499862,11.802941"
       orientation="1,0"
       id="guide5"
       inkscape:locked="false" />
    <sodipodi:guide
       position="13.014355,12.500138"
       orientation="0,-1"
       id="guide6"
       inkscape:locked="false" />
  </sodipodi:namedview>
  <defs
     id="defs1" />
  <g
     inkscape:label="Ebene 1"
     inkscape:groupmode="layer"
     id="layer1"
     transform="translate(0.90099795,-0.3227315)"
     style="stroke:none">
    <path
       id="path1"
       style="display:inline;fill:#eff3ef;fill-opacity:1;stroke-width:0.758;stroke-linecap:round;stroke-linejoin:round;stroke-opacity:0;paint-order:markers fill stroke"
       d="M 9.4670848,1.3141823 8.2589078,5.8215634 A 7.7726058,7.7726058 0 0 0 7.1778411,6.4470468 L 2.6673137,5.259006 1.7202791,6.9158446 1.4987799,7.303468 0.55111608,8.9603066 3.8673103,12.249442 a 7.7726058,7.7726058 0 0 0 -0.040902,0.572627 7.7726058,7.7726058 0 0 0 0.049711,0.632404 l -3.29228224,3.320599 0.96087824,1.648659 0.2252746,0.386364 0.9608784,1.648659 4.49983,-1.225796 a 7.7726058,7.7726058 0 0 0 1.0584134,0.605346 l 1.2257962,4.499201 1.9085421,-0.0075 0.446774,-0.0019 1.908542,-0.0082 1.187411,-4.505493 a 7.7726058,7.7726058 0 0 0 1.059044,-0.616637 l 4.505493,1.186782 0.947034,-1.656838 0.221499,-0.388254 0.947664,-1.656838 -3.319969,-3.292282 a 7.7726058,7.7726058 0 0 0 0.04468,-0.56822 7.7726058,7.7726058 0 0 0 -0.04971,-0.633665 L 22.61419,8.8678055 21.653312,7.2191474 21.428037,6.8334116 20.466529,5.1841243 15.966071,6.4105497 A 7.7726058,7.7726058 0 0 0 14.937862,5.8177878 L 13.730943,1.3141823 h -1.908542 -0.446774 z m 2.1319282,7.0854546 a 4.4224797,4.4224797 0 0 1 4.422432,4.4224321 4.4224797,4.4224797 0 0 1 -4.422432,4.42243 4.4224797,4.4224797 0 0 1 -4.4224304,-4.42243 4.4224797,4.4224797 0 0 1 4.4224304,-4.4224321 z" />
  </g>
</svg>
