<?xml version="1.0" encoding="UTF-8" standalone="no"?>
<svg
   width="128"
   height="128"
   version="1.1"
   id="svg6"
   sodipodi:docname="icon.svg"
   inkscape:version="1.3.2 (091e20e, 2023-11-25, custom)"
   xmlns:inkscape="http://www.inkscape.org/namespaces/inkscape"
   xmlns:sodipodi="http://sodipodi.sourceforge.net/DTD/sodipodi-0.dtd"
   xmlns="http://www.w3.org/2000/svg"
   xmlns:svg="http://www.w3.org/2000/svg">
  <defs
     id="defs6" />
  <sodipodi:namedview
     id="namedview6"
     pagecolor="#ffffff"
     bordercolor="#111111"
     borderopacity="1"
     inkscape:showpageshadow="0"
     inkscape:pageopacity="0"
     inkscape:pagecheckerboard="1"
     inkscape:deskcolor="#d1d1d1"
     inkscape:zoom="3.1681698"
     inkscape:cx="34.720361"
     inkscape:cy="11.205207"
     inkscape:window-width="2560"
     inkscape:window-height="1361"
     inkscape:window-x="2391"
     inkscape:window-y="-9"
     inkscape:window-maximized="1"
     inkscape:current-layer="svg6" />
  <path
     style="fill:#ffffff;fill-opacity:1;stroke:#697d8b;stroke-width:4;stroke-linecap:butt;stroke-linejoin:miter;stroke-dasharray:none;stroke-opacity:1"
     d="M 7.8085834,88.664745 V 41.645748 c 0,-12.992118 7.6064866,-23.529287 22.5519846,-23.529287 l 50.985494,-0.139145 c 16.443041,0 24.496058,9.952192 24.496058,22.825658 L 105.2867,89.13901 c 0,7.51584 7.54631,8.901524 16.54432,6.485517 -0.90082,12.049493 -20.43,14.212923 -33.786179,14.212923 l -59.064698,0.009 C 12.835693,109.74391 7.8085834,100.32674 7.8085834,88.664745 Z"
     id="path6"
     sodipodi:nodetypes="cccccccccc" />
  <g
     fill="#ffffff"
     transform="matrix(0.12567381,0,0,0.1259343,-11.158983,-0.53912417)"
     id="g4"
     style="stroke-width:0.802837">
    <path
       fill="#478cbf"
       d="m 282.54476,656.44023 c 0,173.35531 510.64457,173.35531 511.27268,0 V 456.70471 c 12.56198,-16.33058 24.28649,-33.28925 35.17354,-50.87603 -14.65564,-24.70523 -32.03305,-47.3168 -52.13222,-67.8347 -18.00551,8.37465 -35.17355,18.21487 -51.50412,29.52065 -16.74932,-15.49311 -35.17356,-28.89255 -55.27273,-40.19834 2.93113,-21.35537 4.60606,-42.71073 5.02479,-64.06611 -24.70523,-11.72452 -50.45729,-20.5179 -77.25619,-26.38016 -10.88705,18.00551 -20.51791,36.63912 -28.89256,55.90082 -20.5179,-2.93113 -41.03581,-2.93113 -61.55371,0 -8.37465,-19.2617 -18.00551,-37.89531 -28.89256,-55.90082 -26.7989,5.86226 -52.55096,14.65564 -77.25619,26.38016 0.41873,21.35538 2.09366,42.71074 5.02479,64.06611 -20.09917,11.30579 -38.52341,24.70523 -55.27272,40.19834 -16.33058,-11.30578 -33.49862,-21.146 -51.50413,-29.52065 -20.09917,20.5179 -37.47658,43.12947 -52.13222,67.8347 10.88705,17.58678 22.61156,34.54545 35.17355,50.87603 z"
       id="path2"
       sodipodi:nodetypes="scccccccccccccccccs"
       style="stroke-width:0.802837" />
  </g>
</svg>
