<?xml version="1.0" encoding="UTF-8" standalone="no"?>
<!-- Created with Inkscape (http://www.inkscape.org/) -->

<svg
   width="25mm"
   height="25mm"
   viewBox="0 0 25 25"
   version="1.1"
   id="svg1"
   inkscape:version="1.3.2 (091e20e, 2023-11-25, custom)"
   sodipodi:docname="eye_pressed.svg"
   xmlns:inkscape="http://www.inkscape.org/namespaces/inkscape"
   xmlns:sodipodi="http://sodipodi.sourceforge.net/DTD/sodipodi-0.dtd"
   xmlns="http://www.w3.org/2000/svg"
   xmlns:svg="http://www.w3.org/2000/svg">
  <sodipodi:namedview
     id="namedview1"
     pagecolor="#aaaaaa"
     bordercolor="#111111"
     borderopacity="1"
     inkscape:showpageshadow="0"
     inkscape:pageopacity="0"
     inkscape:pagecheckerboard="true"
     inkscape:deskcolor="#959595"
     inkscape:document-units="mm"
     inkscape:zoom="5.6568542"
     inkscape:cx="31.289475"
     inkscape:cy="33.322407"
     inkscape:window-width="2560"
     inkscape:window-height="1361"
     inkscape:window-x="2391"
     inkscape:window-y="-9"
     inkscape:window-maximized="1"
     inkscape:current-layer="layer1" />
  <defs
     id="defs1" />
  <g
     inkscape:label="Ebene 1"
     inkscape:groupmode="layer"
     id="layer1"
     transform="translate(0.40099685,-1.1826276)">
    <path
       id="path1"
       style="fill:#c4cac4;fill-opacity:1;stroke:none;stroke-width:0.758032;stroke-linecap:butt;stroke-linejoin:miter;stroke-dasharray:none;stroke-opacity:1"
       d="m 12.099011,7.7469089 c -6.3085517,-7e-5 -11.87078882,5.2448551 -11.87078882,5.9350881 0,0.690232 5.77675972,6.019925 11.87078882,5.935701 6.09403,-0.08422 11.851155,-5.38703 11.870789,-5.935088 0.01964,-0.548059 -5.562237,-5.9356311 -11.870789,-5.9357011 z m 6.13e-4,1.3232026 c 2.541237,0 4.611885,2.0724885 4.611885,4.6137255 0,2.541235 -2.070648,4.611272 -4.611885,4.611272 -2.5412351,0 -4.613725,-2.070037 -4.613725,-4.611272 0,-2.541237 2.0724899,-4.6137255 4.613725,-4.6137255 z" />
    <path
       style="display:inline;stroke-width:0.842394;color:#000000;fill:#c4cac4;fill-opacity:1;stroke-linecap:round;stroke-linejoin:round;-inkscape-stroke:none;paint-order:markers fill stroke"
       d="m 15.030942,13.682628 a 2.9319393,2.9319393 0 0 1 -2.931939,2.931939 2.9319393,2.9319393 0 0 1 -2.9319394,-2.931939 2.9319393,2.9319393 0 0 1 2.9319394,-2.931939 2.9319393,2.9319393 0 0 1 2.931939,2.931939 z"
       id="path2"
       transform="matrix(1.18709,0,0,1.18709,-2.263609,-2.5599148)" />
  </g>
</svg>
