<?xml version="1.0" encoding="UTF-8" standalone="no"?>
<!-- Created with Inkscape (http://www.inkscape.org/) -->

<svg
   width="25mm"
   height="25mm"
   viewBox="0 0 25 25"
   version="1.1"
   id="svg1"
   inkscape:version="1.3.2 (091e20e, 2023-11-25, custom)"
   sodipodi:docname="mag_glass_disabled.svg"
   xmlns:inkscape="http://www.inkscape.org/namespaces/inkscape"
   xmlns:sodipodi="http://sodipodi.sourceforge.net/DTD/sodipodi-0.dtd"
   xmlns="http://www.w3.org/2000/svg"
   xmlns:svg="http://www.w3.org/2000/svg">
  <sodipodi:namedview
     id="namedview1"
     pagecolor="#ffffff"
     bordercolor="#111111"
     borderopacity="1"
     inkscape:showpageshadow="0"
     inkscape:pageopacity="0"
     inkscape:pagecheckerboard="1"
     inkscape:deskcolor="#d1d1d1"
     inkscape:document-units="mm"
     inkscape:zoom="8"
     inkscape:cx="45.9375"
     inkscape:cy="42.4375"
     inkscape:window-width="2560"
     inkscape:window-height="1361"
     inkscape:window-x="2391"
     inkscape:window-y="-9"
     inkscape:window-maximized="1"
     inkscape:current-layer="layer1"
     showguides="true">
    <sodipodi:guide
       position="12.499862,11.802941"
       orientation="1,0"
       id="guide5"
       inkscape:locked="false" />
    <sodipodi:guide
       position="13.014355,12.500138"
       orientation="0,-1"
       id="guide6"
       inkscape:locked="false" />
  </sodipodi:namedview>
  <defs
     id="defs1" />
  <g
     inkscape:label="Ebene 1"
     inkscape:groupmode="layer"
     id="layer1"
     transform="translate(0.90099795,-0.3227315)"
     style="stroke:none">
    <path
       id="path1"
       style="fill:#979797;stroke-width:0.758;stroke-linecap:round;stroke-linejoin:round;stroke-opacity:0;paint-order:markers fill stroke;fill-opacity:1"
       d="M 14.878238,1.7042274 A 7.8391692,7.8391692 0 0 0 7.0389691,9.5434972 7.8391692,7.8391692 0 0 0 7.8443427,12.977958 l -7.36384431,7.363844 3.59943501,3.599436 7.3638446,-7.363846 a 7.8391692,7.8391692 0 0 0 3.43446,0.805374 7.8391692,7.8391692 0 0 0 7.83927,-7.8392688 7.8391692,7.8391692 0 0 0 -7.83927,-7.8392698 z m 0,3.0940145 a 4.7454317,4.7454317 0 0 1 4.745256,4.7452553 4.7454317,4.7454317 0 0 1 -4.745256,4.7452548 4.7454317,4.7454317 0 0 1 -4.745255,-4.7452548 4.7454317,4.7454317 0 0 1 4.745255,-4.7452553 z" />
  </g>
</svg>
